<svg width="183" height="50" viewBox="0 0 183 50" fill="none" xmlns="http://www.w3.org/2000/svg">
<mask id="path-1-outside-1_3_6" maskUnits="userSpaceOnUse" x="0" y="0" width="183" height="50" fill="black">
<rect fill="white" width="183" height="50"/>
<path d="M2 48L11.72 2.28H31.088C34.064 2.28 36.656 2.592 38.864 3.216C41.12 3.792 42.968 4.776 44.408 6.168C45.896 7.56 47 9.384 47.72 11.64C48.488 13.896 48.872 16.656 48.872 19.92C48.872 23.424 48.416 26.856 47.504 30.216C46.64 33.576 45.176 36.576 43.112 39.216C41.048 41.856 38.336 43.992 34.976 45.624C31.664 47.208 27.56 48 22.664 48H2ZM21.728 42.96C23.312 42.96 24.704 42.312 25.904 41.016C27.152 39.672 28.208 37.992 29.072 35.976C29.984 33.912 30.728 31.656 31.304 29.208C31.928 26.712 32.408 24.312 32.744 22.008C33.128 19.704 33.392 17.64 33.536 15.816C33.728 13.992 33.824 12.696 33.824 11.928C33.824 10.44 33.512 9.288 32.888 8.472C32.312 7.608 31.28 7.176 29.792 7.176H26.336L18.632 42.96H21.728ZM88.9271 48H72.0791L71.0711 36.552H57.7511L52.6391 48H45.6551L66.8951 2.28H83.9591L88.9271 48ZM60.1271 31.296H70.5671L68.9111 11.712L60.1271 31.296ZM130.728 48H113.88L105.888 14.952L98.8316 48H92.3516L102.072 2.28H119.28L126.84 35.76L133.968 2.28H140.592L130.728 48ZM167.056 15.528C167.2 14.808 167.272 13.824 167.272 12.576C167.272 11.856 167.224 11.16 167.128 10.488C167.032 9.768 166.864 9.144 166.624 8.616C166.384 8.04 166.024 7.608 165.544 7.32C165.064 6.984 164.44 6.816 163.672 6.816C162.808 6.816 162.016 7.008 161.296 7.392C160.576 7.776 159.928 8.28 159.352 8.904C158.824 9.48 158.392 10.176 158.056 10.992C157.768 11.76 157.624 12.576 157.624 13.44C157.624 14.688 157.936 15.648 158.56 16.32C159.232 16.992 160.096 17.544 161.152 17.976C162.208 18.408 163.408 18.768 164.752 19.056C166.096 19.344 167.488 19.68 168.928 20.064C170.128 20.4 171.328 20.832 172.528 21.36C173.728 21.888 174.784 22.608 175.695 23.52C176.656 24.384 177.424 25.536 178 26.976C178.576 28.368 178.864 30.12 178.864 32.232C178.864 35.256 178.264 37.8 177.064 39.864C175.864 41.928 174.208 43.608 172.096 44.904C169.984 46.2 167.464 47.136 164.536 47.712C161.656 48.288 158.512 48.576 155.104 48.576C151.648 48.576 148.816 48.36 146.608 47.928C144.448 47.448 142.744 46.944 141.496 46.416C140.008 45.792 138.904 45.072 138.183 44.256L140.632 34.392H153.304C153.256 34.824 153.208 35.424 153.16 36.192C153.112 36.912 153.088 37.488 153.088 37.92C153.088 38.496 153.16 39.096 153.304 39.72C153.448 40.344 153.664 40.92 153.952 41.448C154.288 41.976 154.744 42.408 155.32 42.744C155.896 43.08 156.616 43.248 157.48 43.248C158.44 43.248 159.28 43.032 160 42.6C160.768 42.168 161.392 41.64 161.872 41.016C162.4 40.344 162.784 39.624 163.024 38.856C163.312 38.04 163.456 37.248 163.456 36.48C163.456 35.424 163.192 34.536 162.664 33.816C162.184 33.096 161.512 32.496 160.648 32.016C159.784 31.488 158.776 31.056 157.624 30.72C156.52 30.336 155.368 29.952 154.168 29.568C153.016 29.232 151.792 28.824 150.496 28.344C149.248 27.864 148.096 27.192 147.04 26.328C145.984 25.464 145.096 24.384 144.376 23.088C143.704 21.744 143.368 20.04 143.368 17.976C143.368 14.904 144.136 12.336 145.672 10.272C147.256 8.16 149.224 6.456 151.576 5.16C153.976 3.864 156.592 2.952 159.424 2.424C162.256 1.848 164.944 1.56 167.488 1.56C170.848 1.56 173.728 1.968 176.128 2.784C178.576 3.552 180.424 4.464 181.672 5.52L179.008 15.528H167.056Z"/>
</mask>
<path d="M2 48L11.72 2.28H31.088C34.064 2.28 36.656 2.592 38.864 3.216C41.12 3.792 42.968 4.776 44.408 6.168C45.896 7.56 47 9.384 47.72 11.64C48.488 13.896 48.872 16.656 48.872 19.92C48.872 23.424 48.416 26.856 47.504 30.216C46.64 33.576 45.176 36.576 43.112 39.216C41.048 41.856 38.336 43.992 34.976 45.624C31.664 47.208 27.56 48 22.664 48H2ZM21.728 42.96C23.312 42.96 24.704 42.312 25.904 41.016C27.152 39.672 28.208 37.992 29.072 35.976C29.984 33.912 30.728 31.656 31.304 29.208C31.928 26.712 32.408 24.312 32.744 22.008C33.128 19.704 33.392 17.64 33.536 15.816C33.728 13.992 33.824 12.696 33.824 11.928C33.824 10.44 33.512 9.288 32.888 8.472C32.312 7.608 31.28 7.176 29.792 7.176H26.336L18.632 42.96H21.728ZM88.9271 48H72.0791L71.0711 36.552H57.7511L52.6391 48H45.6551L66.8951 2.28H83.9591L88.9271 48ZM60.1271 31.296H70.5671L68.9111 11.712L60.1271 31.296ZM130.728 48H113.88L105.888 14.952L98.8316 48H92.3516L102.072 2.28H119.28L126.84 35.76L133.968 2.28H140.592L130.728 48ZM167.056 15.528C167.2 14.808 167.272 13.824 167.272 12.576C167.272 11.856 167.224 11.16 167.128 10.488C167.032 9.768 166.864 9.144 166.624 8.616C166.384 8.04 166.024 7.608 165.544 7.32C165.064 6.984 164.44 6.816 163.672 6.816C162.808 6.816 162.016 7.008 161.296 7.392C160.576 7.776 159.928 8.28 159.352 8.904C158.824 9.48 158.392 10.176 158.056 10.992C157.768 11.76 157.624 12.576 157.624 13.44C157.624 14.688 157.936 15.648 158.56 16.32C159.232 16.992 160.096 17.544 161.152 17.976C162.208 18.408 163.408 18.768 164.752 19.056C166.096 19.344 167.488 19.68 168.928 20.064C170.128 20.4 171.328 20.832 172.528 21.36C173.728 21.888 174.784 22.608 175.695 23.52C176.656 24.384 177.424 25.536 178 26.976C178.576 28.368 178.864 30.12 178.864 32.232C178.864 35.256 178.264 37.8 177.064 39.864C175.864 41.928 174.208 43.608 172.096 44.904C169.984 46.2 167.464 47.136 164.536 47.712C161.656 48.288 158.512 48.576 155.104 48.576C151.648 48.576 148.816 48.36 146.608 47.928C144.448 47.448 142.744 46.944 141.496 46.416C140.008 45.792 138.904 45.072 138.183 44.256L140.632 34.392H153.304C153.256 34.824 153.208 35.424 153.16 36.192C153.112 36.912 153.088 37.488 153.088 37.92C153.088 38.496 153.16 39.096 153.304 39.72C153.448 40.344 153.664 40.92 153.952 41.448C154.288 41.976 154.744 42.408 155.32 42.744C155.896 43.08 156.616 43.248 157.48 43.248C158.44 43.248 159.28 43.032 160 42.6C160.768 42.168 161.392 41.64 161.872 41.016C162.4 40.344 162.784 39.624 163.024 38.856C163.312 38.04 163.456 37.248 163.456 36.48C163.456 35.424 163.192 34.536 162.664 33.816C162.184 33.096 161.512 32.496 160.648 32.016C159.784 31.488 158.776 31.056 157.624 30.72C156.52 30.336 155.368 29.952 154.168 29.568C153.016 29.232 151.792 28.824 150.496 28.344C149.248 27.864 148.096 27.192 147.04 26.328C145.984 25.464 145.096 24.384 144.376 23.088C143.704 21.744 143.368 20.04 143.368 17.976C143.368 14.904 144.136 12.336 145.672 10.272C147.256 8.16 149.224 6.456 151.576 5.16C153.976 3.864 156.592 2.952 159.424 2.424C162.256 1.848 164.944 1.56 167.488 1.56C170.848 1.56 173.728 1.968 176.128 2.784C178.576 3.552 180.424 4.464 181.672 5.52L179.008 15.528H167.056Z" fill="#E856EB"/>
<path d="M2 48L1.02186 47.792L0.765052 49H2V48ZM11.72 2.28V1.28H10.9102L10.7419 2.07205L11.72 2.28ZM38.864 3.216L38.592 4.17831L38.6043 4.18177L38.6166 4.18491L38.864 3.216ZM44.408 6.168L43.713 6.88699L43.7189 6.89268L43.7248 6.89827L44.408 6.168ZM47.72 11.64L46.7673 11.944L46.7703 11.9532L46.7734 11.9623L47.72 11.64ZM47.504 30.216L46.5388 29.954L46.5355 29.967L47.504 30.216ZM43.112 39.216L43.8998 39.8319L43.8998 39.8319L43.112 39.216ZM34.976 45.624L35.4075 46.5262L35.4129 46.5235L34.976 45.624ZM25.904 41.016L25.1712 40.3355L25.1702 40.3366L25.904 41.016ZM29.072 35.976L28.1573 35.5718L28.1529 35.5821L29.072 35.976ZM31.304 29.208L30.3338 28.9654L30.3306 28.979L31.304 29.208ZM32.744 22.008L31.7576 21.8436L31.7559 21.8536L31.7545 21.8637L32.744 22.008ZM33.536 15.816L32.5415 15.7113L32.5401 15.7243L32.5391 15.7373L33.536 15.816ZM32.888 8.472L32.056 9.0267L32.0739 9.05368L32.0936 9.07945L32.888 8.472ZM26.336 7.176V6.176H25.5284L25.3584 6.96553L26.336 7.176ZM18.632 42.96L17.6544 42.7495L17.3938 43.96H18.632V42.96ZM2 48L2.97814 48.208L12.6981 2.48795L11.72 2.28L10.7419 2.07205L1.02186 47.792L2 48ZM11.72 2.28V3.28H31.088V2.28V1.28H11.72V2.28ZM31.088 2.28V3.28C33.9977 3.28 36.4942 3.58545 38.592 4.17831L38.864 3.216L39.136 2.25369C36.8178 1.59854 34.1303 1.28 31.088 1.28V2.28ZM38.864 3.216L38.6166 4.18491C40.7319 4.72498 42.417 5.63417 43.713 6.88699L44.408 6.168L45.103 5.44901C43.519 3.91783 41.5081 2.85902 39.1114 2.24708L38.864 3.216ZM44.408 6.168L43.7248 6.89827C45.0691 8.15584 46.0908 9.82419 46.7673 11.944L47.72 11.64L48.6727 11.336C47.9092 8.94381 46.7229 6.96415 45.0912 5.43773L44.408 6.168ZM47.72 11.64L46.7734 11.9623C47.4957 14.084 47.872 16.728 47.872 19.92H48.872H49.872C49.872 16.584 49.4803 13.708 48.6667 11.3177L47.72 11.64ZM48.872 19.92H47.872C47.872 23.3361 47.4276 26.68 46.5389 29.954L47.504 30.216L48.4691 30.4779C49.4044 27.032 49.872 23.5119 49.872 19.92H48.872ZM47.504 30.216L46.5355 29.967C45.7046 33.1983 44.3003 36.0725 42.3242 38.6001L43.112 39.216L43.8998 39.8319C46.0517 37.0795 47.5754 33.9537 48.4725 30.465L47.504 30.216ZM43.112 39.216L42.3242 38.6001C40.3643 41.1069 37.7779 43.1513 34.5391 44.7245L34.976 45.624L35.4129 46.5235C38.8941 44.8327 41.7317 42.6051 43.8998 39.8319L43.112 39.216ZM34.976 45.624L34.5445 44.7219C31.4044 46.2237 27.4582 47 22.664 47V48V49C27.6618 49 31.9236 48.1923 35.4075 46.5261L34.976 45.624ZM22.664 48V47H2V48V49H22.664V48ZM21.728 42.96V43.96C23.6242 43.96 25.2726 43.1697 26.6378 41.6954L25.904 41.016L25.1702 40.3366C24.1354 41.4543 22.9998 41.96 21.728 41.96V42.96ZM25.904 41.016L26.6368 41.6965C27.9765 40.2537 29.0905 38.4713 29.9911 36.3699L29.072 35.976L28.1529 35.5821C27.3255 37.5127 26.3275 39.0903 25.1712 40.3355L25.904 41.016ZM29.072 35.976L29.9867 36.3802C30.9263 34.2537 31.6889 31.9384 32.2774 29.437L31.304 29.208L30.3306 28.979C29.7671 31.3736 29.0417 33.5703 28.1573 35.5718L29.072 35.976ZM31.304 29.208L32.2741 29.4505C32.9054 26.9255 33.3922 24.4926 33.7335 22.1523L32.744 22.008L31.7545 21.8637C31.4238 24.1314 30.9506 26.4985 30.3339 28.9655L31.304 29.208ZM32.744 22.008L33.7304 22.1724C34.1179 19.8473 34.3861 17.754 34.5329 15.8947L33.536 15.816L32.5391 15.7373C32.3979 17.526 32.1381 19.5607 31.7576 21.8436L32.744 22.008ZM33.536 15.816L34.5305 15.9207C34.7225 14.0963 34.824 12.7538 34.824 11.928H33.824H32.824C32.824 12.6382 32.7335 13.8877 32.5415 15.7113L33.536 15.816ZM33.824 11.928H34.824C34.824 10.3155 34.4878 8.91784 33.6824 7.86455L32.888 8.472L32.0936 9.07945C32.5362 9.65816 32.824 10.5645 32.824 11.928H33.824ZM32.888 8.472L33.7201 7.9173C32.8861 6.66639 31.4582 6.176 29.792 6.176V7.176V8.176C31.1018 8.176 31.7379 8.54961 32.056 9.0267L32.888 8.472ZM29.792 7.176V6.176H26.336V7.176V8.176H29.792V7.176ZM26.336 7.176L25.3584 6.96553L17.6544 42.7495L18.632 42.96L19.6096 43.1705L27.3136 7.38647L26.336 7.176ZM18.632 42.96V43.96H21.728V42.96V41.96H18.632V42.96ZM88.9271 48V49H90.0416L89.9212 47.892L88.9271 48ZM72.0791 48L71.0829 48.0877L71.1632 49H72.0791V48ZM71.0711 36.552L72.0672 36.4643L71.9869 35.552H71.0711V36.552ZM57.7511 36.552V35.552H57.1024L56.838 36.1443L57.7511 36.552ZM52.6391 48V49H53.2877L53.5522 48.4077L52.6391 48ZM45.6551 48L44.7482 47.5787L44.0879 49H45.6551V48ZM66.8951 2.28V1.28H66.257L65.9882 1.85868L66.8951 2.28ZM83.9591 2.28L84.9532 2.17197L84.8563 1.28H83.9591V2.28ZM60.1271 31.296L59.2146 30.8868L58.5826 32.296H60.1271V31.296ZM70.5671 31.296V32.296H71.6552L71.5635 31.2117L70.5671 31.296ZM68.9111 11.712L69.9075 11.6277L69.5816 7.77353L67.9986 11.3028L68.9111 11.712ZM88.9271 48V47H72.0791V48V49H88.9271V48ZM72.0791 48L73.0752 47.9123L72.0672 36.4643L71.0711 36.552L70.0749 36.6397L71.0829 48.0877L72.0791 48ZM71.0711 36.552V35.552H57.7511V36.552V37.552H71.0711V36.552ZM57.7511 36.552L56.838 36.1443L51.726 47.5923L52.6391 48L53.5522 48.4077L58.6642 36.9597L57.7511 36.552ZM52.6391 48V47H45.6551V48V49H52.6391V48ZM45.6551 48L46.562 48.4213L67.802 2.70132L66.8951 2.28L65.9882 1.85868L44.7482 47.5787L45.6551 48ZM66.8951 2.28V3.28H83.9591V2.28V1.28H66.8951V2.28ZM83.9591 2.28L82.9649 2.38802L87.9329 48.108L88.9271 48L89.9212 47.892L84.9532 2.17197L83.9591 2.28ZM60.1271 31.296V32.296H70.5671V31.296V30.296H60.1271V31.296ZM70.5671 31.296L71.5635 31.2117L69.9075 11.6277L68.9111 11.712L67.9146 11.7963L69.5706 31.3803L70.5671 31.296ZM68.9111 11.712L67.9986 11.3028L59.2146 30.8868L60.1271 31.296L61.0395 31.7052L69.8235 12.1212L68.9111 11.712ZM130.728 48V49H131.535L131.705 48.2109L130.728 48ZM113.88 48L112.908 48.2351L113.093 49H113.88V48ZM105.888 14.952L106.86 14.7169L104.91 14.7432L105.888 14.952ZM98.8316 48V49H99.6406L99.8095 48.2088L98.8316 48ZM92.3516 48L91.3734 47.792L91.1166 49H92.3516V48ZM102.072 2.28V1.28H101.262L101.093 2.07205L102.072 2.28ZM119.28 2.28L120.255 2.05974L120.079 1.28H119.28V2.28ZM126.84 35.76L125.864 35.9803L127.818 35.9682L126.84 35.76ZM133.968 2.28V1.28H133.158L132.989 2.07176L133.968 2.28ZM140.592 2.28L141.569 2.49089L141.83 1.28H140.592V2.28ZM130.728 48V47H113.88V48V49H130.728V48ZM113.88 48L114.852 47.7649L106.86 14.7169L105.888 14.952L104.916 15.1871L112.908 48.2351L113.88 48ZM105.888 14.952L104.91 14.7432L97.8536 47.7912L98.8316 48L99.8095 48.2088L106.866 15.1608L105.888 14.952ZM98.8316 48V47H92.3516V48V49H98.8316V48ZM92.3516 48L93.3297 48.208L103.05 2.48795L102.072 2.28L101.093 2.07205L91.3734 47.792L92.3516 48ZM102.072 2.28V3.28H119.28V2.28V1.28H102.072V2.28ZM119.28 2.28L118.304 2.50026L125.864 35.9803L126.84 35.76L127.815 35.5397L120.255 2.05974L119.28 2.28ZM126.84 35.76L127.818 35.9682L134.946 2.48823L133.968 2.28L132.989 2.07176L125.861 35.5518L126.84 35.76ZM133.968 2.28V3.28H140.592V2.28V1.28H133.968V2.28ZM140.592 2.28L139.614 2.0691L129.75 47.7891L130.728 48L131.705 48.2109L141.569 2.49089L140.592 2.28ZM167.056 15.528L166.075 15.3319L165.836 16.528H167.056V15.528ZM167.128 10.488L166.136 10.6202L166.138 10.6294L167.128 10.488ZM166.624 8.616L165.7 9.00061L165.707 9.01531L165.713 9.0298L166.624 8.616ZM165.544 7.32L164.97 8.13923L164.999 8.1594L165.029 8.17749L165.544 7.32ZM161.296 7.392L161.766 8.27435L161.766 8.27435L161.296 7.392ZM159.352 8.904L158.617 8.22571L158.614 8.22827L159.352 8.904ZM158.056 10.992L157.131 10.6113L157.125 10.626L157.119 10.6409L158.056 10.992ZM158.56 16.32L157.827 17.0004L157.839 17.014L157.852 17.0271L158.56 16.32ZM161.152 17.976L160.773 18.9015L160.773 18.9015L161.152 17.976ZM164.752 19.056L164.542 20.0338L164.542 20.0338L164.752 19.056ZM168.928 20.064L169.197 19.101L169.185 19.0978L168.928 20.064ZM172.528 21.36L172.125 22.2753L172.125 22.2753L172.528 21.36ZM175.695 23.52L174.988 24.2271L175.007 24.2457L175.027 24.2633L175.695 23.52ZM178 26.976L177.071 27.3474L177.075 27.3584L178 26.976ZM177.064 39.864L177.928 40.3666L177.928 40.3666L177.064 39.864ZM172.096 44.904L171.572 44.0517L171.572 44.0517L172.096 44.904ZM164.536 47.712L164.342 46.7308L164.339 46.7314L164.536 47.712ZM146.608 47.928L146.391 48.9042L146.403 48.9069L146.415 48.9094L146.608 47.928ZM141.496 46.416L141.885 45.495L141.882 45.4938L141.496 46.416ZM138.183 44.256L137.213 44.0151L137.087 44.5243L137.434 44.9176L138.183 44.256ZM140.632 34.392V33.392H139.849L139.661 34.1511L140.632 34.392ZM153.304 34.392L154.297 34.5024L154.421 33.392H153.304V34.392ZM153.16 36.192L154.157 36.2585L154.158 36.2544L153.16 36.192ZM153.304 39.72L152.329 39.9449L152.329 39.9449L153.304 39.72ZM153.952 41.448L153.074 41.9269L153.09 41.9564L153.108 41.9849L153.952 41.448ZM155.32 42.744L154.816 43.6078L154.816 43.6078L155.32 42.744ZM160 42.6L159.509 41.7284L159.497 41.7353L159.485 41.7425L160 42.6ZM161.872 41.016L161.085 40.3981L161.079 40.4063L161.872 41.016ZM163.024 38.856L162.081 38.5232L162.074 38.5403L162.069 38.5577L163.024 38.856ZM162.664 33.816L161.831 34.3707L161.844 34.3893L161.857 34.4074L162.664 33.816ZM160.648 32.016L160.126 32.8693L160.144 32.8801L160.162 32.8902L160.648 32.016ZM157.624 30.72L157.295 31.6645L157.319 31.6729L157.344 31.68L157.624 30.72ZM154.168 29.568L154.472 28.6156L154.46 28.6116L154.448 28.608L154.168 29.568ZM150.496 28.344L150.136 29.2774L150.148 29.2817L150.496 28.344ZM147.04 26.328L147.673 25.554L147.673 25.554L147.04 26.328ZM144.376 23.088L143.481 23.5352L143.491 23.5546L143.501 23.5736L144.376 23.088ZM145.672 10.272L144.871 9.67199L144.869 9.67499L145.672 10.272ZM151.576 5.16L151.1 4.28006L151.093 4.28416L151.576 5.16ZM159.424 2.424L159.607 3.40706L159.615 3.40556L159.623 3.40394L159.424 2.424ZM176.128 2.784L175.806 3.73077L175.817 3.73459L175.828 3.73815L176.128 2.784ZM181.672 5.52L182.638 5.77723L182.801 5.16551L182.317 4.75661L181.672 5.52ZM179.008 15.528V16.528H179.776L179.974 15.7852L179.008 15.528ZM167.056 15.528L168.036 15.7241C168.199 14.9102 168.272 13.851 168.272 12.576H167.272H166.272C166.272 13.797 166.2 14.7058 166.075 15.3319L167.056 15.528ZM167.272 12.576H168.272C168.272 11.8115 168.221 11.0681 168.117 10.3466L167.128 10.488L166.138 10.6294C166.226 11.2518 166.272 11.9005 166.272 12.576H167.272ZM167.128 10.488L168.119 10.3558C168.013 9.56191 167.823 8.83882 167.534 8.20219L166.624 8.616L165.713 9.0298C165.904 9.44918 166.05 9.97409 166.136 10.6202L167.128 10.488ZM166.624 8.616L167.547 8.23138C167.234 7.4819 166.742 6.87297 166.058 6.46251L165.544 7.32L165.029 8.17749C165.305 8.34303 165.533 8.59809 165.7 9.00061L166.624 8.616ZM165.544 7.32L166.117 6.50077C165.424 6.01543 164.581 5.816 163.672 5.816V6.816V7.816C164.298 7.816 164.703 7.95256 164.97 8.13923L165.544 7.32ZM163.672 6.816V5.816C162.653 5.816 161.698 6.04385 160.825 6.50965L161.296 7.392L161.766 8.27435C162.333 7.97215 162.962 7.816 163.672 7.816V6.816ZM161.296 7.392L160.825 6.50965C160.002 6.94851 159.266 7.52276 158.617 8.22572L159.352 8.904L160.086 9.58228C160.589 9.03724 161.149 8.60349 161.766 8.27435L161.296 7.392ZM159.352 8.904L158.614 8.22827C157.997 8.90127 157.506 9.70059 157.131 10.6113L158.056 10.992L158.98 11.3727C159.277 10.6514 159.65 10.0587 160.089 9.57972L159.352 8.904ZM158.056 10.992L157.119 10.6409C156.787 11.5271 156.624 12.4626 156.624 13.44H157.624H158.624C158.624 12.6894 158.748 11.9929 158.992 11.3431L158.056 10.992ZM157.624 13.44H156.624C156.624 14.848 156.977 16.0854 157.827 17.0004L158.56 16.32L159.292 15.6395C158.894 15.2106 158.624 14.528 158.624 13.44H157.624ZM158.56 16.32L157.852 17.0271C158.635 17.8098 159.618 18.4291 160.773 18.9015L161.152 17.976L161.53 17.0505C160.573 16.6589 159.828 16.1742 159.267 15.6129L158.56 16.32ZM161.152 17.976L160.773 18.9015C161.893 19.3599 163.151 19.7358 164.542 20.0338L164.752 19.056L164.961 18.0782C163.664 17.8002 162.522 17.4561 161.53 17.0505L161.152 17.976ZM164.752 19.056L164.542 20.0338C165.869 20.3181 167.244 20.6501 168.67 21.0302L168.928 20.064L169.185 19.0978C167.731 18.7099 166.322 18.3699 164.961 18.0782L164.752 19.056ZM168.928 20.064L168.658 21.027C169.81 21.3496 170.966 21.7653 172.125 22.2753L172.528 21.36L172.93 20.4447C171.689 19.8987 170.445 19.4504 169.197 19.101L168.928 20.064ZM172.528 21.36L172.125 22.2753C173.213 22.7542 174.166 23.4042 174.988 24.2271L175.695 23.52L176.403 22.8129C175.401 21.8118 174.242 21.0218 172.93 20.4447L172.528 21.36ZM175.695 23.52L175.027 24.2633C175.852 25.0063 176.541 26.0214 177.071 27.3474L178 26.976L178.928 26.6046C178.306 25.0506 177.459 23.7617 176.364 22.7767L175.695 23.52ZM178 26.976L177.075 27.3584C177.585 28.5909 177.864 30.2022 177.864 32.232H178.864H179.864C179.864 30.0378 179.566 28.1451 178.924 26.5936L178 26.976ZM178.864 32.232H177.864C177.864 35.1258 177.29 37.4856 176.199 39.3614L177.064 39.864L177.928 40.3666C179.237 38.1144 179.864 35.3862 179.864 32.232H178.864ZM177.064 39.864L176.199 39.3614C175.085 41.2768 173.549 42.8388 171.572 44.0517L172.096 44.904L172.619 45.7563C174.866 44.3772 176.642 42.5792 177.928 40.3666L177.064 39.864ZM172.096 44.904L171.572 44.0517C169.58 45.2742 167.177 46.1732 164.342 46.7308L164.536 47.712L164.729 48.6932C167.75 48.0988 170.387 47.1258 172.619 45.7563L172.096 44.904ZM164.536 47.712L164.339 46.7314C161.533 47.2926 158.456 47.576 155.104 47.576V48.576V49.576C158.567 49.576 161.778 49.2834 164.732 48.6926L164.536 47.712ZM155.104 48.576V47.576C151.682 47.576 148.92 47.3615 146.8 46.9466L146.608 47.928L146.415 48.9094C148.711 49.3585 151.613 49.576 155.104 49.576V48.576ZM146.608 47.928L146.824 46.9518C144.692 46.4778 143.054 45.9894 141.885 45.495L141.496 46.416L141.106 47.337C142.433 47.8986 144.203 48.4182 146.391 48.9042L146.608 47.928ZM141.496 46.416L141.882 45.4938C140.472 44.9023 139.517 44.256 138.933 43.5944L138.183 44.256L137.434 44.9176C138.29 45.888 139.543 46.6817 141.109 47.3382L141.496 46.416ZM138.183 44.256L139.154 44.4969L141.602 34.6329L140.632 34.392L139.661 34.1511L137.213 44.0151L138.183 44.256ZM140.632 34.392V35.392H153.304V34.392V33.392H140.632V34.392ZM153.304 34.392L152.31 34.2816C152.259 34.7372 152.21 35.3557 152.161 36.1296L153.16 36.192L154.158 36.2544C154.205 35.4923 154.252 34.9108 154.297 34.5024L153.304 34.392ZM153.16 36.192L152.162 36.1255C152.113 36.8551 152.088 37.4561 152.088 37.92H153.088H154.088C154.088 37.5199 154.11 36.9689 154.157 36.2585L153.16 36.192ZM153.088 37.92H152.088C152.088 38.5796 152.17 39.2552 152.329 39.9449L153.304 39.72L154.278 39.4951C154.149 38.9368 154.088 38.4124 154.088 37.92H153.088ZM153.304 39.72L152.329 39.9449C152.492 40.6518 152.739 41.314 153.074 41.9269L153.952 41.448L154.829 40.9691C154.588 40.526 154.403 40.0362 154.278 39.4951L153.304 39.72ZM153.952 41.448L153.108 41.9849C153.535 42.6561 154.111 43.1969 154.816 43.6078L155.32 42.744L155.823 41.8802C155.376 41.6191 155.04 41.2959 154.795 40.9111L153.952 41.448ZM155.32 42.744L154.816 43.6078C155.583 44.0557 156.49 44.248 157.48 44.248V43.248V42.248C156.741 42.248 156.208 42.1043 155.823 41.8802L155.32 42.744ZM157.48 43.248V44.248C158.594 44.248 159.617 43.9955 160.514 43.4575L160 42.6L159.485 41.7425C158.942 42.0685 158.285 42.248 157.48 42.248V43.248ZM160 42.6L160.49 43.4716C161.361 42.9814 162.093 42.3685 162.664 41.6257L161.872 41.016L161.079 40.4063C160.69 40.9115 160.174 41.3546 159.509 41.7284L160 42.6ZM161.872 41.016L162.658 41.6338C163.256 40.8724 163.7 40.0452 163.978 39.1543L163.024 38.856L162.069 38.5577C161.867 39.2028 161.543 39.8156 161.085 40.3982L161.872 41.016ZM163.024 38.856L163.966 39.1888C164.287 38.2793 164.456 37.3748 164.456 36.48H163.456H162.456C162.456 37.1212 162.336 37.8007 162.081 38.5232L163.024 38.856ZM163.456 36.48H164.456C164.456 35.2513 164.145 34.1458 163.47 33.2246L162.664 33.816L161.857 34.4074C162.238 34.9261 162.456 35.5966 162.456 36.48H163.456ZM162.664 33.816L163.496 33.2613C162.915 32.391 162.116 31.6881 161.133 31.1418L160.648 32.016L160.162 32.8902C160.907 33.3039 161.452 33.801 161.831 34.3707L162.664 33.816ZM160.648 32.016L161.169 31.1627C160.217 30.5811 159.125 30.1163 157.904 29.76L157.624 30.72L157.344 31.68C158.426 31.9957 159.35 32.3949 160.126 32.8693L160.648 32.016ZM157.624 30.72L157.952 29.7755C156.84 29.3886 155.68 29.0019 154.472 28.6156L154.168 29.568L153.863 30.5204C155.055 30.9021 156.199 31.2834 157.295 31.6645L157.624 30.72ZM154.168 29.568L154.448 28.608C153.321 28.2795 152.12 27.8792 150.843 27.4063L150.496 28.344L150.148 29.2817C151.463 29.7688 152.71 30.1845 153.888 30.528L154.168 29.568ZM150.496 28.344L150.854 27.4107C149.708 26.9696 148.648 26.3521 147.673 25.554L147.04 26.328L146.406 27.102C147.543 28.0319 148.787 28.7584 150.137 29.2773L150.496 28.344ZM147.04 26.328L147.673 25.554C146.723 24.7767 145.914 23.7975 145.25 22.6024L144.376 23.088L143.501 23.5736C144.277 24.9705 145.244 26.1513 146.406 27.102L147.04 26.328ZM144.376 23.088L145.27 22.6408C144.688 21.4776 144.368 19.9396 144.368 17.976H143.368H142.368C142.368 20.1404 142.719 22.0104 143.481 23.5352L144.376 23.088ZM143.368 17.976H144.368C144.368 15.0761 145.09 12.7289 146.474 10.869L145.672 10.272L144.869 9.67499C143.181 11.9431 142.368 14.7319 142.368 17.976H143.368ZM145.672 10.272L146.471 10.872C147.969 8.87539 149.828 7.26464 152.058 6.03584L151.576 5.16L151.093 4.28416C148.619 5.64736 146.542 7.4446 144.872 9.672L145.672 10.272ZM151.576 5.16L152.051 6.0399C154.354 4.79594 156.871 3.9171 159.607 3.40706L159.424 2.424L159.24 1.44094C156.312 1.98689 153.597 2.93206 151.1 4.28009L151.576 5.16ZM159.424 2.424L159.623 3.40394C162.398 2.83951 165.019 2.56 167.488 2.56V1.56V0.559997C164.868 0.559997 162.113 0.856486 159.224 1.44406L159.424 2.424ZM167.488 1.56V2.56C170.771 2.56 173.537 2.95938 175.806 3.73077L176.128 2.784L176.449 1.83723C173.918 0.976618 170.924 0.559997 167.488 0.559997V1.56ZM176.128 2.784L175.828 3.73815C178.213 4.48648 179.92 5.34832 181.026 6.28338L181.672 5.52L182.317 4.75661C180.927 3.57967 178.938 2.61752 176.427 1.82985L176.128 2.784ZM181.672 5.52L180.705 5.26277L178.041 15.2708L179.008 15.528L179.974 15.7852L182.638 5.77723L181.672 5.52ZM179.008 15.528V14.528H167.056V15.528V16.528H179.008V15.528Z" fill="black" mask="url(#path-1-outside-1_3_6)"/>
</svg>
