<svg width="162" height="31" viewBox="0 0 162 31" fill="none" xmlns="http://www.w3.org/2000/svg">
<mask id="path-1-outside-1_3_5" maskUnits="userSpaceOnUse" x="0" y="0" width="162" height="31" fill="black">
<rect fill="white" width="162" height="31"/>
<path d="M18.4922 25.2402V28H5.69531V25.2402H18.4922ZM6.36328 2.40625V28H2.9707V2.40625H6.36328ZM32.2031 4.67383L23.7305 28H20.2676L30.0234 2.40625H32.2559L32.2031 4.67383ZM39.3047 28L30.8145 4.67383L30.7617 2.40625H32.9941L42.7852 28H39.3047ZM38.8652 18.5254V21.3027H24.4863V18.5254H38.8652ZM65.9004 2.40625V28H62.4902L49.6055 8.25977V28H46.2129V2.40625H49.6055L62.543 22.1992V2.40625H65.9004ZM78.8379 28H73.4941L73.5293 25.2402H78.8379C80.666 25.2402 82.1895 24.8594 83.4082 24.0977C84.627 23.3242 85.541 22.2461 86.1504 20.8633C86.7715 19.4688 87.082 17.8398 87.082 15.9766V14.4121C87.082 12.9473 86.9062 11.6465 86.5547 10.5098C86.2031 9.36133 85.6875 8.39453 85.0078 7.60938C84.3281 6.8125 83.4961 6.20898 82.5117 5.79883C81.5391 5.38867 80.4199 5.18359 79.1543 5.18359H73.3887V2.40625H79.1543C80.8301 2.40625 82.3594 2.6875 83.7422 3.25C85.125 3.80078 86.3145 4.60352 87.3105 5.6582C88.3184 6.70117 89.0918 7.9668 89.6309 9.45508C90.1699 10.9316 90.4395 12.5957 90.4395 14.4473V15.9766C90.4395 17.8281 90.1699 19.498 89.6309 20.9863C89.0918 22.4629 88.3125 23.7227 87.293 24.7656C86.2852 25.8086 85.0664 26.6113 83.6367 27.1738C82.2188 27.7246 80.6191 28 78.8379 28ZM75.3047 2.40625V28H71.9121V2.40625H75.3047ZM95.5371 2.40625H104.01C105.932 2.40625 107.555 2.69922 108.879 3.28516C110.215 3.87109 111.229 4.73828 111.92 5.88672C112.623 7.02344 112.975 8.42383 112.975 10.0879C112.975 11.2598 112.734 12.332 112.254 13.3047C111.785 14.2656 111.105 15.0859 110.215 15.7656C109.336 16.4336 108.281 16.9316 107.051 17.2598L106.102 17.6289H98.1387L98.1035 14.8691H104.115C105.334 14.8691 106.348 14.6582 107.156 14.2363C107.965 13.8027 108.574 13.2227 108.984 12.4961C109.395 11.7695 109.6 10.9668 109.6 10.0879C109.6 9.10352 109.406 8.24219 109.02 7.50391C108.633 6.76562 108.023 6.19727 107.191 5.79883C106.371 5.38867 105.311 5.18359 104.01 5.18359H98.9297V28H95.5371V2.40625ZM110.496 28L104.273 16.3984L107.807 16.3809L114.117 27.7891V28H110.496ZM132.363 2.40625H135.738V19.7207C135.738 21.6426 135.311 23.2422 134.455 24.5195C133.6 25.7969 132.463 26.7578 131.045 27.4023C129.639 28.0352 128.109 28.3516 126.457 28.3516C124.723 28.3516 123.152 28.0352 121.746 27.4023C120.352 26.7578 119.244 25.7969 118.424 24.5195C117.615 23.2422 117.211 21.6426 117.211 19.7207V2.40625H120.568V19.7207C120.568 21.0566 120.814 22.1582 121.307 23.0254C121.799 23.8926 122.484 24.5371 123.363 24.959C124.254 25.3809 125.285 25.5918 126.457 25.5918C127.641 25.5918 128.672 25.3809 129.551 24.959C130.441 24.5371 131.133 23.8926 131.625 23.0254C132.117 22.1582 132.363 21.0566 132.363 19.7207V2.40625ZM150.504 17.9629H143.666V15.2031H150.504C151.828 15.2031 152.9 14.9922 153.721 14.5703C154.541 14.1484 155.139 13.5625 155.514 12.8125C155.9 12.0625 156.094 11.207 156.094 10.2461C156.094 9.36719 155.9 8.54102 155.514 7.76758C155.139 6.99414 154.541 6.37305 153.721 5.9043C152.9 5.42383 151.828 5.18359 150.504 5.18359H144.457V28H141.064V2.40625H150.504C152.438 2.40625 154.072 2.74023 155.408 3.4082C156.744 4.07617 157.758 5.00195 158.449 6.18555C159.141 7.35742 159.486 8.69922 159.486 10.2109C159.486 11.8516 159.141 13.252 158.449 14.4121C157.758 15.5723 156.744 16.457 155.408 17.0664C154.072 17.6641 152.438 17.9629 150.504 17.9629Z"/>
</mask>
<path d="M18.4922 25.2402H20.4922V23.2402H18.4922V25.2402ZM18.4922 28V30H20.4922V28H18.4922ZM5.69531 28H3.69531V30H5.69531V28ZM5.69531 25.2402V23.2402H3.69531V25.2402H5.69531ZM6.36328 2.40625H8.36328V0.40625H6.36328V2.40625ZM6.36328 28V30H8.36328V28H6.36328ZM2.9707 28H0.970703V30H2.9707V28ZM2.9707 2.40625V0.40625H0.970703V2.40625H2.9707ZM18.4922 25.2402H16.4922V28H18.4922H20.4922V25.2402H18.4922ZM18.4922 28V26H5.69531V28V30H18.4922V28ZM5.69531 28H7.69531V25.2402H5.69531H3.69531V28H5.69531ZM5.69531 25.2402V27.2402H18.4922V25.2402V23.2402H5.69531V25.2402ZM6.36328 2.40625H4.36328V28H6.36328H8.36328V2.40625H6.36328ZM6.36328 28V26H2.9707V28V30H6.36328V28ZM2.9707 28H4.9707V2.40625H2.9707H0.970703V28H2.9707ZM2.9707 2.40625V4.40625H6.36328V2.40625V0.40625H2.9707V2.40625ZM32.2031 4.67383L34.083 5.35663L34.195 5.04829L34.2026 4.72033L32.2031 4.67383ZM23.7305 28V30H25.1319L25.6103 28.6828L23.7305 28ZM20.2676 28L18.3987 27.2876L17.3648 30H20.2676V28ZM30.0234 2.40625V0.40625H28.6454L28.1546 1.69389L30.0234 2.40625ZM32.2559 2.40625L34.2553 2.45275L34.3029 0.40625H32.2559V2.40625ZM39.3047 28L37.4253 28.6841L37.9043 30H39.3047V28ZM30.8145 4.67383L28.815 4.72033L28.8226 5.04897L28.9351 5.35788L30.8145 4.67383ZM30.7617 2.40625V0.40625H28.7147L28.7623 2.45275L30.7617 2.40625ZM32.9941 2.40625L34.8621 1.69165L34.3704 0.40625H32.9941V2.40625ZM42.7852 28V30H45.6916L44.6531 27.2854L42.7852 28ZM38.8652 18.5254H40.8652V16.5254H38.8652V18.5254ZM38.8652 21.3027V23.3027H40.8652V21.3027H38.8652ZM24.4863 21.3027H22.4863V23.3027H24.4863V21.3027ZM24.4863 18.5254V16.5254H22.4863V18.5254H24.4863ZM32.2031 4.67383L30.3233 3.99102L21.8506 27.3172L23.7305 28L25.6103 28.6828L34.083 5.35663L32.2031 4.67383ZM23.7305 28V26H20.2676V28V30H23.7305V28ZM20.2676 28L22.1364 28.7124L31.8923 3.11861L30.0234 2.40625L28.1546 1.69389L18.3987 27.2876L20.2676 28ZM30.0234 2.40625V4.40625H32.2559V2.40625V0.40625H30.0234V2.40625ZM32.2559 2.40625L30.2564 2.35975L30.2037 4.62733L32.2031 4.67383L34.2026 4.72033L34.2553 2.45275L32.2559 2.40625ZM39.3047 28L41.1841 27.3159L32.6938 3.98977L30.8145 4.67383L28.9351 5.35788L37.4253 28.6841L39.3047 28ZM30.8145 4.67383L32.8139 4.62733L32.7612 2.35975L30.7617 2.40625L28.7623 2.45275L28.815 4.72033L30.8145 4.67383ZM30.7617 2.40625V4.40625H32.9941V2.40625V0.40625H30.7617V2.40625ZM32.9941 2.40625L31.1262 3.12085L40.9172 28.7146L42.7852 28L44.6531 27.2854L34.8621 1.69165L32.9941 2.40625ZM42.7852 28V26H39.3047V28V30H42.7852V28ZM38.8652 18.5254H36.8652V21.3027H38.8652H40.8652V18.5254H38.8652ZM38.8652 21.3027V19.3027H24.4863V21.3027V23.3027H38.8652V21.3027ZM24.4863 21.3027H26.4863V18.5254H24.4863H22.4863V21.3027H24.4863ZM24.4863 18.5254V20.5254H38.8652V18.5254V16.5254H24.4863V18.5254ZM65.9004 2.40625H67.9004V0.40625H65.9004V2.40625ZM65.9004 28V30H67.9004V28H65.9004ZM62.4902 28L60.8154 29.0932L61.4073 30H62.4902V28ZM49.6055 8.25977L51.2803 7.16659L47.6055 1.53657V8.25977H49.6055ZM49.6055 28V30H51.6055V28H49.6055ZM46.2129 28H44.2129V30H46.2129V28ZM46.2129 2.40625V0.40625H44.2129V2.40625H46.2129ZM49.6055 2.40625L51.2796 1.31199L50.6875 0.40625H49.6055V2.40625ZM62.543 22.1992L60.8689 23.2935L64.543 28.9144V22.1992H62.543ZM62.543 2.40625V0.40625H60.543V2.40625H62.543ZM65.9004 2.40625H63.9004V28H65.9004H67.9004V2.40625H65.9004ZM65.9004 28V26H62.4902V28V30H65.9004V28ZM62.4902 28L64.165 26.9068L51.2803 7.16659L49.6055 8.25977L47.9307 9.35294L60.8154 29.0932L62.4902 28ZM49.6055 8.25977H47.6055V28H49.6055H51.6055V8.25977H49.6055ZM49.6055 28V26H46.2129V28V30H49.6055V28ZM46.2129 28H48.2129V2.40625H46.2129H44.2129V28H46.2129ZM46.2129 2.40625V4.40625H49.6055V2.40625V0.40625H46.2129V2.40625ZM49.6055 2.40625L47.9314 3.50051L60.8689 23.2935L62.543 22.1992L64.2171 21.105L51.2796 1.31199L49.6055 2.40625ZM62.543 22.1992H64.543V2.40625H62.543H60.543V22.1992H62.543ZM62.543 2.40625V4.40625H65.9004V2.40625V0.40625H62.543V2.40625ZM73.4941 28L71.4943 27.9745L71.4685 30H73.4941V28ZM73.5293 25.2402V23.2402H71.5546L71.5295 25.2148L73.5293 25.2402ZM83.4082 24.0977L84.4682 25.7937L84.4799 25.7863L83.4082 24.0977ZM86.1504 20.8633L84.3234 20.0496L84.3202 20.0568L86.1504 20.8633ZM86.5547 10.5098L84.6423 11.0952L84.644 11.1007L86.5547 10.5098ZM85.0078 7.60938L83.4861 8.90727L83.4909 8.91284L83.4957 8.91838L85.0078 7.60938ZM82.5117 5.79883L81.7346 7.6417L81.7425 7.64498L82.5117 5.79883ZM73.3887 5.18359H71.3887V7.18359H73.3887V5.18359ZM73.3887 2.40625V0.40625H71.3887V2.40625H73.3887ZM83.7422 3.25L82.9886 5.10259L82.9953 5.10534L83.0021 5.10804L83.7422 3.25ZM87.3105 5.6582L85.8565 7.03145L85.8644 7.03975L85.8723 7.04797L87.3105 5.6582ZM89.6309 9.45508L87.7504 10.1362L87.7521 10.141L89.6309 9.45508ZM89.6309 20.9863L91.5096 21.6722L91.5113 21.6674L89.6309 20.9863ZM87.293 24.7656L85.8628 23.3675L85.8547 23.3759L87.293 24.7656ZM83.6367 27.1738L84.3609 29.0381L84.369 29.035L83.6367 27.1738ZM75.3047 2.40625H77.3047V0.40625H75.3047V2.40625ZM75.3047 28V30H77.3047V28H75.3047ZM71.9121 28H69.9121V30H71.9121V28ZM71.9121 2.40625V0.40625H69.9121V2.40625H71.9121ZM78.8379 28V26H73.4941V28V30H78.8379V28ZM73.4941 28L75.494 28.0255L75.5291 25.2657L73.5293 25.2402L71.5295 25.2148L71.4943 27.9745L73.4941 28ZM73.5293 25.2402V27.2402H78.8379V25.2402V23.2402H73.5293V25.2402ZM78.8379 25.2402V27.2402C80.94 27.2402 82.8557 26.8015 84.4682 25.7937L83.4082 24.0977L82.3482 22.4017C81.5232 22.9173 80.3921 23.2402 78.8379 23.2402V25.2402ZM83.4082 24.0977L84.4799 25.7863C86.0495 24.7902 87.2193 23.3974 87.9806 21.6698L86.1504 20.8633L84.3202 20.0568C83.8628 21.0948 83.2044 21.8582 82.3366 22.409L83.4082 24.0977ZM86.1504 20.8633L87.9774 21.677C88.7348 19.9764 89.082 18.0598 89.082 15.9766H87.082H85.082C85.082 17.6199 84.8082 18.9611 84.3234 20.0496L86.1504 20.8633ZM87.082 15.9766H89.082V14.4121H87.082H85.082V15.9766H87.082ZM87.082 14.4121H89.082C89.082 12.7913 88.888 11.2852 88.4654 9.91883L86.5547 10.5098L84.644 11.1007C84.9245 12.0078 85.082 13.1032 85.082 14.4121H87.082ZM86.5547 10.5098L88.4671 9.92434C88.0466 8.55087 87.4084 7.32666 86.5199 6.30037L85.0078 7.60938L83.4957 8.91838C83.9666 9.46241 84.3596 10.1718 84.6423 11.0952L86.5547 10.5098ZM85.0078 7.60938L86.5295 6.31148C85.6418 5.27073 84.5503 4.48157 83.2809 3.95267L82.5117 5.79883L81.7425 7.64498C82.4419 7.9364 83.0145 8.35427 83.4861 8.90727L85.0078 7.60938ZM82.5117 5.79883L83.2888 3.95598C82.0264 3.42364 80.6348 3.18359 79.1543 3.18359V5.18359V7.18359C80.205 7.18359 81.0517 7.3537 81.7346 7.64168L82.5117 5.79883ZM79.1543 5.18359V3.18359H73.3887V5.18359V7.18359H79.1543V5.18359ZM73.3887 5.18359H75.3887V2.40625H73.3887H71.3887V5.18359H73.3887ZM73.3887 2.40625V4.40625H79.1543V2.40625V0.40625H73.3887V2.40625ZM79.1543 2.40625V4.40625C80.6033 4.40625 81.8727 4.64867 82.9886 5.10259L83.7422 3.25L84.4958 1.39741C82.846 0.726331 81.0569 0.40625 79.1543 0.40625V2.40625ZM83.7422 3.25L83.0021 5.10804C84.1218 5.55399 85.0656 6.19399 85.8565 7.03145L87.3105 5.6582L88.7646 4.28496C87.5633 3.01304 86.1282 2.04757 84.4823 1.39196L83.7422 3.25ZM87.3105 5.6582L85.8723 7.04797C86.6672 7.87058 87.2984 8.88817 87.7504 10.1362L89.6309 9.45508L91.5113 8.77397C90.8852 7.04543 89.9695 5.53177 88.7488 4.26844L87.3105 5.6582ZM89.6309 9.45508L87.7521 10.141C88.1981 11.3625 88.4395 12.7889 88.4395 14.4473H90.4395H92.4395C92.4395 12.4025 92.1417 10.5008 91.5096 8.7692L89.6309 9.45508ZM90.4395 14.4473H88.4395V15.9766H90.4395H92.4395V14.4473H90.4395ZM90.4395 15.9766H88.4395C88.4395 17.6345 88.1982 19.0689 87.7504 20.3052L89.6309 20.9863L91.5113 21.6674C92.1416 19.9272 92.4395 18.0218 92.4395 15.9766H90.4395ZM89.6309 20.9863L87.7521 20.3004C87.3027 21.5315 86.6689 22.5429 85.8628 23.3676L87.293 24.7656L88.7232 26.1637C89.9561 24.9024 90.8809 23.3943 91.5096 21.6722L89.6309 20.9863ZM87.293 24.7656L85.8547 23.3759C85.0575 24.2009 84.0839 24.8487 82.9045 25.3127L83.6367 27.1738L84.369 29.035C86.0489 28.374 87.5128 27.4163 88.7312 26.1554L87.293 24.7656ZM83.6367 27.1738L82.9126 25.3095C81.7613 25.7567 80.413 26 78.8379 26V28V30C80.8252 30 82.6762 29.6925 84.3609 29.0381L83.6367 27.1738ZM75.3047 2.40625H73.3047V28H75.3047H77.3047V2.40625H75.3047ZM75.3047 28V26H71.9121V28V30H75.3047V28ZM71.9121 28H73.9121V2.40625H71.9121H69.9121V28H71.9121ZM71.9121 2.40625V4.40625H75.3047V2.40625V0.40625H71.9121V2.40625ZM95.5371 2.40625V0.40625H93.5371V2.40625H95.5371ZM108.879 3.28516L108.07 5.11412L108.076 5.11673L108.879 3.28516ZM111.92 5.88672L110.206 6.91828L110.213 6.92859L110.219 6.93882L111.92 5.88672ZM112.254 13.3047L110.461 12.4189L110.456 12.4278L112.254 13.3047ZM110.215 15.7656L111.425 17.358L111.428 17.3555L110.215 15.7656ZM107.051 17.2598L106.535 15.3273L106.429 15.3557L106.326 15.3958L107.051 17.2598ZM106.102 17.6289V19.6289H106.477L106.826 19.4929L106.102 17.6289ZM98.1387 17.6289L96.1388 17.6544L96.164 19.6289H98.1387V17.6289ZM98.1035 14.8691V12.8691H96.0779L96.1037 14.8946L98.1035 14.8691ZM107.156 14.2363L108.081 16.0095L108.091 16.0043L108.101 15.9989L107.156 14.2363ZM107.191 5.79883L106.297 7.58768L106.312 7.5953L106.328 7.60267L107.191 5.79883ZM98.9297 5.18359V3.18359H96.9297V5.18359H98.9297ZM98.9297 28V30H100.93V28H98.9297ZM95.5371 28H93.5371V30H95.5371V28ZM110.496 28L108.734 28.9453L109.299 30H110.496V28ZM104.273 16.3984L104.263 14.3985L100.94 14.415L102.511 17.3438L104.273 16.3984ZM107.807 16.3809L109.557 15.4128L108.983 14.375L107.797 14.3809L107.807 16.3809ZM114.117 27.7891H116.117V27.2728L115.867 26.821L114.117 27.7891ZM114.117 28V30H116.117V28H114.117ZM95.5371 2.40625V4.40625H104.01V2.40625V0.40625H95.5371V2.40625ZM104.01 2.40625V4.40625C105.74 4.40625 107.069 4.67141 108.07 5.11411L108.879 3.28516L109.688 1.4562C108.04 0.727023 106.124 0.40625 104.01 0.40625V2.40625ZM108.879 3.28516L108.076 5.11673C109.068 5.55194 109.747 6.15573 110.206 6.91828L111.92 5.88672L113.633 4.85516C112.71 3.32083 111.362 2.19025 109.682 1.45358L108.879 3.28516ZM111.92 5.88672L110.219 6.93882C110.684 7.69033 110.975 8.70485 110.975 10.0879H112.975H114.975C114.975 8.1428 114.562 6.35655 113.621 4.83461L111.92 5.88672ZM112.975 10.0879H110.975C110.975 10.9777 110.794 11.7434 110.461 12.4189L112.254 13.3047L114.047 14.1905C114.674 12.9207 114.975 11.5419 114.975 10.0879H112.975ZM112.254 13.3047L110.456 12.4278C110.131 13.0954 109.657 13.6757 109.001 14.1757L110.215 15.7656L111.428 17.3555C112.554 16.4962 113.44 15.4359 114.051 14.1815L112.254 13.3047ZM110.215 15.7656L109.005 14.1733C108.362 14.6615 107.553 15.0561 106.535 15.3273L107.051 17.2598L107.566 19.1922C109.01 18.8072 110.31 18.2057 111.425 17.3579L110.215 15.7656ZM107.051 17.2598L106.326 15.3958L105.377 15.7649L106.102 17.6289L106.826 19.4929L107.776 19.1238L107.051 17.2598ZM106.102 17.6289V15.6289H98.1387V17.6289V19.6289H106.102V17.6289ZM98.1387 17.6289L100.139 17.6034L100.103 14.8437L98.1035 14.8691L96.1037 14.8946L96.1388 17.6544L98.1387 17.6289ZM98.1035 14.8691V16.8691H104.115V14.8691V12.8691H98.1035V14.8691ZM104.115 14.8691V16.8691C105.552 16.8691 106.907 16.622 108.081 16.0095L107.156 14.2363L106.231 12.4632C105.788 12.6944 105.116 12.8691 104.115 12.8691V14.8691ZM107.156 14.2363L108.101 15.9989C109.209 15.4047 110.111 14.5684 110.726 13.4793L108.984 12.4961L107.243 11.5129C107.037 11.8769 106.72 12.2007 106.211 12.4737L107.156 14.2363ZM108.984 12.4961L110.726 13.4793C111.315 12.4365 111.6 11.2922 111.6 10.0879H109.6H107.6C107.6 10.6414 107.474 11.1025 107.243 11.5129L108.984 12.4961ZM109.6 10.0879H111.6C111.6 8.83869 111.353 7.64814 110.791 6.57589L109.02 7.50391L107.248 8.43192C107.46 8.83623 107.6 9.36834 107.6 10.0879H109.6ZM109.02 7.50391L110.791 6.57589C110.183 5.41448 109.233 4.55881 108.055 3.99499L107.191 5.79883L106.328 7.60267C106.814 7.83572 107.083 8.11677 107.248 8.43192L109.02 7.50391ZM107.191 5.79883L108.086 4.00997C106.896 3.41529 105.5 3.18359 104.01 3.18359V5.18359V7.18359C105.122 7.18359 105.846 7.36205 106.297 7.58768L107.191 5.79883ZM104.01 5.18359V3.18359H98.9297V5.18359V7.18359H104.01V5.18359ZM98.9297 5.18359H96.9297V28H98.9297H100.93V5.18359H98.9297ZM98.9297 28V26H95.5371V28V30H98.9297V28ZM95.5371 28H97.5371V2.40625H95.5371H93.5371V28H95.5371ZM110.496 28L112.259 27.0547L106.036 15.4531L104.273 16.3984L102.511 17.3438L108.734 28.9453L110.496 28ZM104.273 16.3984L104.283 18.3984L107.817 18.3808L107.807 16.3809L107.797 14.3809L104.263 14.3985L104.273 16.3984ZM107.807 16.3809L106.057 17.3489L112.367 28.7571L114.117 27.7891L115.867 26.821L109.557 15.4128L107.807 16.3809ZM114.117 27.7891H112.117V28H114.117H116.117V27.7891H114.117ZM114.117 28V26H110.496V28V30H114.117V28ZM132.363 2.40625V0.40625H130.363V2.40625H132.363ZM135.738 2.40625H137.738V0.40625H135.738V2.40625ZM131.045 27.4023L131.866 29.2262L131.873 29.2231L131.045 27.4023ZM121.746 27.4023L120.907 29.2178L120.916 29.222L120.925 29.2262L121.746 27.4023ZM118.424 24.5195L116.734 25.5893L116.741 25.6003L118.424 24.5195ZM117.211 2.40625V0.40625H115.211V2.40625H117.211ZM120.568 2.40625H122.568V0.40625H120.568V2.40625ZM123.363 24.959L122.498 26.7621L122.507 26.7665L123.363 24.959ZM129.551 24.959L128.695 23.1515L128.685 23.1559L129.551 24.959ZM132.363 2.40625V4.40625H135.738V2.40625V0.40625H132.363V2.40625ZM135.738 2.40625H133.738V19.7207H135.738H137.738V2.40625H135.738ZM135.738 19.7207H133.738C133.738 21.3456 133.379 22.5324 132.793 23.4066L134.455 24.5195L136.117 25.6324C137.242 23.952 137.738 21.9395 137.738 19.7207H135.738ZM134.455 24.5195L132.793 23.4066C132.148 24.3708 131.302 25.0888 130.217 25.5816L131.045 27.4023L131.873 29.2231C133.624 28.4269 135.052 27.2229 136.117 25.6324L134.455 24.5195ZM131.045 27.4023L130.224 25.5785C129.094 26.087 127.847 26.3516 126.457 26.3516V28.3516V30.3516C128.372 30.3516 130.183 29.9833 131.866 29.2262L131.045 27.4023ZM126.457 28.3516V26.3516C124.97 26.3516 123.685 26.0815 122.567 25.5785L121.746 27.4023L120.925 29.2262C122.62 29.9888 124.475 30.3516 126.457 30.3516V28.3516ZM121.746 27.4023L122.585 25.5869C121.532 25.1 120.719 24.3919 120.107 23.4388L118.424 24.5195L116.741 25.6003C117.77 27.2019 119.171 28.4157 120.907 29.2178L121.746 27.4023ZM118.424 24.5195L120.114 23.4498C119.556 22.5688 119.211 21.3656 119.211 19.7207H117.211H115.211C115.211 21.9195 115.674 23.9156 116.734 25.5893L118.424 24.5195ZM117.211 19.7207H119.211V2.40625H117.211H115.211V19.7207H117.211ZM117.211 2.40625V4.40625H120.568V2.40625V0.40625H117.211V2.40625ZM120.568 2.40625H118.568V19.7207H120.568H122.568V2.40625H120.568ZM120.568 19.7207H118.568C118.568 21.2894 118.856 22.7592 119.567 24.0126L121.307 23.0254L123.046 22.0382C122.773 21.5572 122.568 20.8239 122.568 19.7207H120.568ZM121.307 23.0254L119.567 24.0126C120.256 25.2259 121.242 26.1594 122.498 26.762L123.363 24.959L124.229 23.1559C123.726 22.9148 123.342 22.5593 123.046 22.0382L121.307 23.0254ZM123.363 24.959L122.507 26.7665C123.711 27.3368 125.044 27.5918 126.457 27.5918V25.5918V23.5918C125.526 23.5918 124.797 23.4249 124.219 23.1515L123.363 24.959ZM126.457 25.5918V27.5918C127.877 27.5918 129.216 27.3383 130.416 26.762L129.551 24.959L128.685 23.1559C128.128 23.4234 127.404 23.5918 126.457 23.5918V25.5918ZM129.551 24.959L130.407 26.7665C131.674 26.1663 132.672 25.233 133.364 24.0126L131.625 23.0254L129.886 22.0382C129.594 22.5522 129.209 22.9079 128.695 23.1515L129.551 24.959ZM131.625 23.0254L133.364 24.0126C134.076 22.7592 134.363 21.2894 134.363 19.7207H132.363H130.363C130.363 20.8239 130.159 21.5572 129.886 22.0382L131.625 23.0254ZM132.363 19.7207H134.363V2.40625H132.363H130.363V19.7207H132.363ZM143.666 17.9629H141.666V19.9629H143.666V17.9629ZM143.666 15.2031V13.2031H141.666V15.2031H143.666ZM155.514 12.8125L153.736 11.8959L153.73 11.907L153.725 11.9181L155.514 12.8125ZM155.514 7.76758L153.714 8.64013L153.719 8.6511L153.725 8.66201L155.514 7.76758ZM153.721 5.9043L152.71 7.63006L152.719 7.63547L152.728 7.64078L153.721 5.9043ZM144.457 5.18359V3.18359H142.457V5.18359H144.457ZM144.457 28V30H146.457V28H144.457ZM141.064 28H139.064V30H141.064V28ZM141.064 2.40625V0.40625H139.064V2.40625H141.064ZM158.449 6.18555L156.722 7.19436L156.727 7.20184L158.449 6.18555ZM155.408 17.0664L156.225 18.892L156.232 18.8891L156.238 18.886L155.408 17.0664ZM150.504 17.9629V15.9629H143.666V17.9629V19.9629H150.504V17.9629ZM143.666 17.9629H145.666V15.2031H143.666H141.666V17.9629H143.666ZM143.666 15.2031V17.2031H150.504V15.2031V13.2031H143.666V15.2031ZM150.504 15.2031V17.2031C152.017 17.2031 153.436 16.9657 154.635 16.3489L153.721 14.5703L152.806 12.7917C152.365 13.0187 151.639 13.2031 150.504 13.2031V15.2031ZM153.721 14.5703L154.635 16.3489C155.794 15.7531 156.718 14.8752 157.303 13.7069L155.514 12.8125L153.725 11.9181C153.559 12.2498 153.288 12.5438 152.806 12.7917L153.721 14.5703ZM155.514 12.8125L157.291 13.7291C157.843 12.6585 158.094 11.4813 158.094 10.2461H156.094H154.094C154.094 10.9327 153.957 11.4665 153.736 11.8959L155.514 12.8125ZM156.094 10.2461H158.094C158.094 9.06198 157.83 7.92898 157.303 6.87315L155.514 7.76758L153.725 8.66201C153.97 9.15305 154.094 9.6724 154.094 10.2461H156.094ZM155.514 7.76758L157.313 6.89503C156.745 5.72297 155.847 4.81586 154.713 4.16781L153.721 5.9043L152.728 7.64078C153.235 7.93023 153.532 8.26531 153.714 8.64013L155.514 7.76758ZM153.721 5.9043L154.732 4.17853C153.507 3.46143 152.05 3.18359 150.504 3.18359V5.18359V7.18359C151.606 7.18359 152.294 7.38622 152.71 7.63006L153.721 5.9043ZM150.504 5.18359V3.18359H144.457V5.18359V7.18359H150.504V5.18359ZM144.457 5.18359H142.457V28H144.457H146.457V5.18359H144.457ZM144.457 28V26H141.064V28V30H144.457V28ZM141.064 28H143.064V2.40625H141.064H139.064V28H141.064ZM141.064 2.40625V4.40625H150.504V2.40625V0.40625H141.064V2.40625ZM150.504 2.40625V4.40625C152.215 4.40625 153.525 4.70268 154.514 5.19706L155.408 3.4082L156.303 1.61935C154.62 0.777789 152.66 0.40625 150.504 0.40625V2.40625ZM155.408 3.4082L154.514 5.19706C155.535 5.70757 156.244 6.37609 156.722 7.19435L158.449 6.18555L160.176 5.17674C159.271 3.62781 157.953 2.44477 156.303 1.61935L155.408 3.4082ZM158.449 6.18555L156.727 7.20184C157.217 8.03255 157.486 9.01596 157.486 10.2109H159.486H161.486C161.486 8.38248 161.064 6.68229 160.172 5.16925L158.449 6.18555ZM159.486 10.2109H157.486C157.486 11.5685 157.202 12.5981 156.731 13.3882L158.449 14.4121L160.167 15.436C161.079 13.9058 161.486 12.1346 161.486 10.2109H159.486ZM158.449 14.4121L156.731 13.3882C156.266 14.1683 155.578 14.7907 154.578 15.2468L155.408 17.0664L156.238 18.886C157.91 18.1233 159.249 16.9762 160.167 15.436L158.449 14.4121ZM155.408 17.0664L154.591 15.2408C153.581 15.6929 152.242 15.9629 150.504 15.9629V17.9629V19.9629C152.633 19.9629 154.564 19.6353 156.225 18.892L155.408 17.0664Z" fill="#431567" mask="url(#path-1-outside-1_3_5)"/>
</svg>
